<?xml version="1.0" encoding="utf-8"?>
<!-- Generator: Adobe Illustrator 16.0.0, SVG Export Plug-In . SVG Version: 6.00 Build 0)  -->
<!DOCTYPE svg PUBLIC "-//W3C//DTD SVG 1.1//EN" "http://www.w3.org/Graphics/SVG/1.1/DTD/svg11.dtd">
<svg version="1.1" id="Layer_1" xmlns="http://www.w3.org/2000/svg" xmlns:xlink="http://www.w3.org/1999/xlink" x="0px" y="0px"
	 width="164px" height="51px" viewBox="0 0 164 51" enable-background="new 0 0 164 51" xml:space="preserve">
<rect x="0.386" fill="none" width="163.614" height="51.02"/>
<rect x="0.386" fill="none" width="163.614" height="51.02"/>
<path fill="#FFFFFF" d="M60.396,40.463c-6.253,0-11.34-5.086-11.34-11.337c0-6.253,5.087-11.339,11.34-11.339
	c6.252,0,11.339,5.086,11.339,11.339C71.734,35.377,66.647,40.463,60.396,40.463"/>
<path fill="#FFFFFF" d="M83.081,39.139c-5.744,0-10.417-4.612-10.417-10.28c0-5.67,4.674-10.282,10.417-10.282
	c5.745,0,10.419,4.612,10.419,10.282C93.5,34.526,88.826,39.139,83.081,39.139"/>
<path fill="#FFFFFF" d="M105.792,39.583c-5.766,0-10.459-4.588-10.459-10.227c0-5.639,4.693-10.227,10.459-10.227
	c5.767,0,10.458,4.587,10.458,10.227C116.25,34.995,111.559,39.583,105.792,39.583"/>
<path fill="#FFFFFF" d="M128.425,40.463c-6.252,0-11.339-5.086-11.339-11.337c0-6.253,5.087-11.339,11.339-11.339
	s11.339,5.086,11.339,11.339C139.764,35.377,134.677,40.463,128.425,40.463"/>
<path fill="#FFFFFF" d="M151.104,40.463c-6.254,0-11.34-5.086-11.34-11.337c0-6.253,5.086-11.339,11.34-11.339
	c6.252,0,11.34,5.086,11.34,11.339C162.441,35.377,157.354,40.463,151.104,40.463"/>
<path fill="#589441" d="M60.396,20.105c-4.978,0-9.027,4.046-9.027,9.02c0,4.973,4.05,9.021,9.027,9.021s9.026-4.049,9.026-9.021
	C69.422,24.151,65.372,20.105,60.396,20.105 M60.396,40.463c-6.253,0-11.34-5.086-11.34-11.338c0-6.253,5.087-11.339,11.34-11.339
	c6.252,0,11.339,5.086,11.339,11.339C71.734,35.377,66.647,40.463,60.396,40.463"/>
<path fill="#589441" d="M83.072,20.105c-4.979,0-9.027,4.046-9.027,9.02c0,4.973,4.05,9.021,9.027,9.021
	c4.977,0,9.025-4.049,9.025-9.021C92.1,24.151,88.049,20.105,83.072,20.105 M83.072,40.463c-6.252,0-11.339-5.086-11.339-11.338
	c0-6.253,5.087-11.339,11.339-11.339c6.252,0,11.338,5.086,11.338,11.339C94.41,35.377,89.324,40.463,83.072,40.463"/>
<path fill="#589441" d="M105.75,20.105c-4.979,0-9.027,4.046-9.027,9.02c0,4.973,4.051,9.021,9.027,9.021s9.025-4.049,9.025-9.021
	C114.775,24.151,110.727,20.105,105.75,20.105 M105.75,40.463c-6.253,0-11.34-5.086-11.34-11.338c0-6.253,5.087-11.339,11.34-11.339
	c6.252,0,11.338,5.086,11.338,11.339C117.088,35.377,112.002,40.463,105.75,40.463"/>
<path fill="#589441" d="M128.426,20.105c-4.979,0-9.025,4.046-9.025,9.02c0,4.973,4.049,9.021,9.025,9.021
	c4.979,0,9.025-4.049,9.025-9.021C137.451,24.151,133.404,20.105,128.426,20.105 M128.426,40.463c-6.252,0-11.34-5.086-11.34-11.338
	c0-6.253,5.088-11.339,11.34-11.339s11.338,5.086,11.338,11.339C139.764,35.377,134.678,40.463,128.426,40.463"/>
<path fill="#589441" d="M151.104,20.105c-4.979,0-9.027,4.046-9.027,9.02c0,4.973,4.051,9.021,9.027,9.021
	c4.979,0,9.025-4.049,9.025-9.021C160.129,24.151,156.08,20.105,151.104,20.105 M151.104,40.463c-6.254,0-11.34-5.086-11.34-11.338
	c0-6.253,5.086-11.339,11.34-11.339c6.252,0,11.34,5.086,11.34,11.339C162.441,35.377,157.354,40.463,151.104,40.463"/>
<g>
	<path fill="#FEDA80" d="M10.488,19.168c4.156-0.538,15.959-0.907,12.727,16.146l3.662-0.299
		c-1.603-10.513,1.758-15.874,12.264-16.387C21.717,8.98,11.795,18.997,10.488,19.168z"/>
	<path fill="none" stroke="#5F6F72" stroke-width="7.7708" d="M29.906,15.473"/>
	<path fill="#FFFFFF" d="M26.711,32.613c1.906,5.174,7.658,7.812,12.827,5.906c5.169-1.906,7.815-7.656,5.901-12.827
		c-1.906-5.173-7.65-7.815-12.818-5.906C27.436,21.693,24.791,27.438,26.711,32.613z"/>
	<path fill="#FFFFFF" d="M23.926,29.109c0,5.515-4.471,9.983-9.982,9.983c-5.516,0-9.986-4.47-9.986-9.983
		c0-5.51,4.471-9.979,9.986-9.979C19.455,19.129,23.926,23.6,23.926,29.109z"/>
	<path fill="#A61E2E" d="M15.644,29.01c0,1.021-0.827,1.848-1.842,1.848c-1.024,0-1.849-0.826-1.849-1.848
		c0-1.018,0.824-1.84,1.849-1.84C14.816,27.17,15.644,27.992,15.644,29.01z"/>
	<path fill="#4A853E" d="M37.893,29.01c0,1.021-0.824,1.848-1.843,1.848c-1.023,0-1.848-0.826-1.848-1.848
		c0-1.018,0.823-1.84,1.848-1.84C37.068,27.17,37.893,27.992,37.893,29.01z"/>
	<path fill="#020202" d="M44.983,22.539c0.525-2.222,2.187-4.444,2.187-4.444h-7.408c-4.161-2.687-9.205-4.112-14.804-4.112
		c-5.802,0-11.04,1.459-15.175,4.162l-6.952,0.003c0,0,1.64,2.195,2.175,4.4C3.65,24.387,2.84,26.654,2.84,29.109
		c0,6.132,4.98,11.104,11.104,11.104c3.498,0,6.619-1.626,8.656-4.165l2.363,3.539l2.389-3.569c1.074,1.371,2.451,2.471,4.073,3.219
		c2.696,1.25,5.716,1.357,8.496,0.332c5.743-2.121,8.689-8.521,6.566-14.261C46.113,24.287,45.605,23.363,44.983,22.539z
		 M35.721,18.061c-1.17,0.034-2.342,0.25-3.49,0.675c-2.789,1.026-5.004,3.074-6.248,5.768c-0.559,1.218-0.878,2.505-0.978,3.803
		c-0.413-5.676-5.091-10.169-10.837-10.287c3.18-1.357,6.827-2.097,10.79-2.097C28.941,15.922,32.546,16.638,35.721,18.061z
		 M13.943,37.973c-4.887,0-8.862-3.978-8.862-8.863c0-4.885,3.976-8.858,8.862-8.858c4.889,0,8.863,3.973,8.863,8.858
		C22.807,33.995,18.832,37.973,13.943,37.973z M39.146,37.473c-2.223,0.814-4.628,0.723-6.783-0.274
		c-2.147-0.983-3.785-2.755-4.604-4.976v-0.004c-0.824-2.219-0.729-4.623,0.262-6.774c0.988-2.153,2.76-3.787,4.982-4.608
		c4.586-1.69,9.688,0.663,11.387,5.249C46.08,30.664,43.732,35.773,39.146,37.473z"/>
	<path fill="#020202" d="M13.805,23.53c-3.024,0-5.485,2.458-5.485,5.48c0,3.029,2.461,5.49,5.485,5.49
		c3.019,0,5.477-2.461,5.477-5.49C19.281,25.988,16.823,23.53,13.805,23.53z M13.805,32.609c-1.984,0-3.599-1.613-3.599-3.601
		c0-1.979,1.614-3.59,3.599-3.59c1.98,0,3.587,1.61,3.587,3.59C17.392,30.996,15.785,32.609,13.805,32.609z"/>
	<path fill="#020202" d="M36.05,23.53c-3.021,0-5.477,2.458-5.477,5.48c0,3.029,2.456,5.49,5.477,5.49s5.485-2.461,5.485-5.49
		C41.535,25.988,39.071,23.53,36.05,23.53z M36.05,32.609c-1.98,0-3.595-1.613-3.595-3.601c0-1.979,1.614-3.59,3.595-3.59
		c1.989,0,3.597,1.61,3.597,3.59C39.646,30.996,38.039,32.609,36.05,32.609z"/>
</g>
<path fill="#FFFFFF" d="M60.292,39.583c-5.721,0-10.375-4.588-10.375-10.226c0-5.64,4.654-10.228,10.375-10.228
	c5.72,0,10.375,4.587,10.375,10.228C70.666,34.995,66.011,39.583,60.292,39.583"/>
<path fill="#589441" d="M53.891,29.152c0,3.59,2.911,6.5,6.504,6.5c3.591,0,6.503-2.91,6.503-6.5c0-3.59-2.912-6.5-6.503-6.5
	C56.802,22.651,53.891,25.562,53.891,29.152"/>
<path fill="#589441" d="M60.395,20.134c-4.978,0-9.027,4.046-9.027,9.021c0,4.973,4.05,9.021,9.027,9.021s9.026-4.048,9.026-9.021
	C69.421,24.18,65.371,20.134,60.395,20.134 M60.395,40.491c-6.253,0-11.34-5.087-11.34-11.339c0-6.252,5.087-11.338,11.34-11.338
	c6.252,0,11.339,5.086,11.339,11.338C71.733,35.404,66.646,40.491,60.395,40.491"/>
<path fill="#589441" d="M76.567,29.027c0,3.59,2.911,6.5,6.503,6.5c3.591,0,6.503-2.91,6.503-6.5c0-3.59-2.912-6.5-6.503-6.5
	C79.478,22.526,76.567,25.438,76.567,29.027"/>
<path fill="#589441" d="M99.246,29.167c0,3.59,2.911,6.501,6.504,6.501c3.591,0,6.503-2.911,6.503-6.501s-2.912-6.5-6.503-6.5
	C102.157,22.666,99.246,25.577,99.246,29.167"/>
<path fill="#589441" d="M151.104,20.135c-4.979,0-9.027,4.046-9.027,9.02c0,4.974,4.05,9.021,9.027,9.021
	c4.977,0,9.025-4.048,9.025-9.021C160.129,24.181,156.079,20.135,151.104,20.135 M151.104,40.492c-6.252,0-11.34-5.086-11.34-11.338
	c0-6.253,5.088-11.339,11.34-11.339s11.338,5.086,11.338,11.339C162.439,35.406,157.354,40.492,151.104,40.492"/>
<path fill="#FFFFFF" d="M128.416,39.139c-5.836,0-10.583-4.611-10.583-10.281c0-5.669,4.747-10.281,10.583-10.281
	c5.837,0,10.584,4.612,10.584,10.281C139,34.527,134.253,39.139,128.416,39.139"/>
<path fill="#589441" d="M121.921,29.182c0,3.59,2.911,6.502,6.504,6.502c3.591,0,6.503-2.912,6.503-6.502s-2.912-6.5-6.503-6.5
	C124.832,22.681,121.921,25.592,121.921,29.182"/>
<path fill="#589441" d="M128.425,20.163c-4.978,0-9.026,4.046-9.026,9.021c0,4.973,4.05,9.021,9.026,9.021
	c4.978,0,9.026-4.048,9.026-9.021C137.451,24.209,133.4,20.163,128.425,20.163 M128.425,40.521c-6.253,0-11.34-5.086-11.34-11.338
	c0-6.253,5.087-11.34,11.34-11.34c6.252,0,11.339,5.086,11.339,11.34C139.764,35.436,134.677,40.521,128.425,40.521"/>
<path fill="#FFFFFF" d="M151.166,39.588c-5.743,0-10.417-4.712-10.417-10.507c0-5.793,4.674-10.506,10.417-10.506
	s10.417,4.713,10.417,10.506C161.581,34.876,156.909,39.588,151.166,39.588"/>
<path fill="#589441" d="M144.6,29.182c0,3.59,2.912,6.502,6.504,6.502s6.504-2.912,6.504-6.502s-2.912-6.5-6.504-6.5
	C147.512,22.681,144.6,25.592,144.6,29.182"/>
<path fill="#589441" d="M151.104,20.163c-4.978,0-9.026,4.046-9.026,9.021c0,4.973,4.05,9.021,9.026,9.021
	c4.978,0,9.026-4.048,9.026-9.021C160.13,24.209,156.08,20.163,151.104,20.163 M151.104,40.521c-6.252,0-11.34-5.086-11.34-11.338
	c0-6.253,5.088-11.34,11.34-11.34s11.34,5.086,11.34,11.34C162.441,35.436,157.355,40.521,151.104,40.521"/>
</svg>
