<?xml version="1.0" encoding="utf-8"?>
<!-- Generator: Adobe Illustrator 16.0.0, SVG Export Plug-In . SVG Version: 6.00 Build 0)  -->
<!DOCTYPE svg PUBLIC "-//W3C//DTD SVG 1.1//EN" "http://www.w3.org/Graphics/SVG/1.1/DTD/svg11.dtd">
<svg version="1.1" id="Layer_1" xmlns="http://www.w3.org/2000/svg" xmlns:xlink="http://www.w3.org/1999/xlink" x="0px" y="0px"
	 width="164px" height="51px" viewBox="0 0 164 51" enable-background="new 0 0 164 51" xml:space="preserve">
<rect x="0.386" fill="none" width="163.614" height="51.02"/>
<rect x="0.386" fill="none" width="163.614" height="51.02"/>
<path fill="#FFFFFF" d="M60.396,40.463c-6.253,0-11.34-5.086-11.34-11.337c0-6.253,5.087-11.339,11.34-11.339
	c6.252,0,11.339,5.086,11.339,11.339C71.734,35.377,66.647,40.463,60.396,40.463"/>
<path fill="#FFFFFF" d="M83.02,39.458c-5.708,0-10.353-4.551-10.353-10.145c0-5.596,4.645-10.147,10.353-10.147
	c5.71,0,10.355,4.551,10.355,10.147C93.375,34.907,88.729,39.458,83.02,39.458"/>
<path fill="#FFFFFF" d="M105.75,39.458c-5.651,0-10.25-4.71-10.25-10.499c0-5.791,4.599-10.5,10.25-10.5
	c5.653,0,10.25,4.71,10.25,10.5C116,34.748,111.403,39.458,105.75,39.458"/>
<path fill="#FFFFFF" d="M128.459,38.835c-5.836,0-10.584-4.523-10.584-10.083c0-5.561,4.748-10.084,10.584-10.084
	c5.835,0,10.583,4.523,10.583,10.084C139.042,34.312,134.294,38.835,128.459,38.835"/>
<path fill="#FFFFFF" d="M151.354,39.458c-5.825,0-10.562-4.71-10.562-10.499c0-5.791,4.737-10.5,10.562-10.5
	c5.823,0,10.562,4.71,10.562,10.5C161.915,34.748,157.176,39.458,151.354,39.458"/>
<path fill="#589441" d="M60.396,20.105c-4.978,0-9.027,4.046-9.027,9.02c0,4.973,4.05,9.021,9.027,9.021s9.026-4.049,9.026-9.021
	C69.422,24.151,65.372,20.105,60.396,20.105 M60.396,40.463c-6.253,0-11.34-5.086-11.34-11.338c0-6.253,5.087-11.339,11.34-11.339
	c6.252,0,11.339,5.086,11.339,11.339C71.734,35.377,66.647,40.463,60.396,40.463"/>
<path fill="#589441" d="M83.072,20.105c-4.979,0-9.027,4.046-9.027,9.02c0,4.973,4.05,9.021,9.027,9.021
	c4.977,0,9.025-4.049,9.025-9.021C92.1,24.151,88.049,20.105,83.072,20.105 M83.072,40.463c-6.252,0-11.339-5.086-11.339-11.338
	c0-6.253,5.087-11.339,11.339-11.339c6.252,0,11.338,5.086,11.338,11.339C94.41,35.377,89.324,40.463,83.072,40.463"/>
<path fill="#589441" d="M105.75,20.105c-4.979,0-9.027,4.046-9.027,9.02c0,4.973,4.051,9.021,9.027,9.021s9.025-4.049,9.025-9.021
	C114.775,24.151,110.727,20.105,105.75,20.105 M105.75,40.463c-6.253,0-11.34-5.086-11.34-11.338c0-6.253,5.087-11.339,11.34-11.339
	c6.252,0,11.338,5.086,11.338,11.339C117.088,35.377,112.002,40.463,105.75,40.463"/>
<path fill="#589441" d="M128.426,20.105c-4.979,0-9.025,4.046-9.025,9.02c0,4.973,4.049,9.021,9.025,9.021
	c4.979,0,9.025-4.049,9.025-9.021C137.451,24.151,133.404,20.105,128.426,20.105 M128.426,40.463c-6.252,0-11.34-5.086-11.34-11.338
	c0-6.253,5.088-11.339,11.34-11.339s11.338,5.086,11.338,11.339C139.764,35.377,134.678,40.463,128.426,40.463"/>
<path fill="#589441" d="M151.104,20.105c-4.979,0-9.027,4.046-9.027,9.02c0,4.973,4.051,9.021,9.027,9.021
	c4.979,0,9.025-4.049,9.025-9.021C160.129,24.151,156.08,20.105,151.104,20.105 M151.104,40.463c-6.254,0-11.34-5.086-11.34-11.338
	c0-6.253,5.086-11.339,11.34-11.339c6.252,0,11.34,5.086,11.34,11.339C162.441,35.377,157.354,40.463,151.104,40.463"/>
<g>
	<path fill="#FEDA80" d="M10.488,19.168c4.156-0.538,15.959-0.907,12.727,16.146l3.662-0.299
		c-1.603-10.513,1.758-15.874,12.264-16.387C21.717,8.98,11.795,18.997,10.488,19.168z"/>
	<path fill="none" stroke="#5F6F72" stroke-width="7.7708" d="M29.906,15.473"/>
	<path fill="#FFFFFF" d="M26.711,32.613c1.906,5.174,7.658,7.812,12.827,5.906c5.169-1.906,7.815-7.656,5.901-12.827
		c-1.906-5.173-7.65-7.815-12.818-5.906C27.436,21.693,24.791,27.438,26.711,32.613z"/>
	<path fill="#FFFFFF" d="M23.926,29.109c0,5.515-4.471,9.983-9.982,9.983c-5.516,0-9.986-4.47-9.986-9.983
		c0-5.51,4.471-9.979,9.986-9.979C19.455,19.129,23.926,23.6,23.926,29.109z"/>
	<path fill="#A61E2E" d="M15.644,29.01c0,1.021-0.827,1.848-1.842,1.848c-1.024,0-1.849-0.826-1.849-1.848
		c0-1.018,0.824-1.84,1.849-1.84C14.816,27.17,15.644,27.992,15.644,29.01z"/>
	<path fill="#4A853E" d="M37.893,29.01c0,1.021-0.824,1.848-1.843,1.848c-1.023,0-1.848-0.826-1.848-1.848
		c0-1.018,0.823-1.84,1.848-1.84C37.068,27.17,37.893,27.992,37.893,29.01z"/>
	<path fill="#020202" d="M44.983,22.539c0.525-2.222,2.187-4.444,2.187-4.444h-7.408c-4.161-2.687-9.205-4.112-14.804-4.112
		c-5.802,0-11.04,1.459-15.175,4.162l-6.952,0.003c0,0,1.64,2.195,2.175,4.4C3.65,24.387,2.84,26.654,2.84,29.109
		c0,6.132,4.98,11.104,11.104,11.104c3.498,0,6.619-1.626,8.656-4.165l2.363,3.539l2.389-3.569c1.074,1.371,2.451,2.471,4.073,3.219
		c2.696,1.25,5.716,1.357,8.496,0.332c5.743-2.121,8.689-8.521,6.566-14.261C46.113,24.287,45.605,23.363,44.983,22.539z
		 M35.721,18.061c-1.17,0.034-2.342,0.25-3.49,0.675c-2.789,1.026-5.004,3.074-6.248,5.768c-0.559,1.218-0.878,2.505-0.978,3.803
		c-0.413-5.676-5.091-10.169-10.837-10.287c3.18-1.357,6.827-2.097,10.79-2.097C28.941,15.922,32.546,16.638,35.721,18.061z
		 M13.943,37.973c-4.887,0-8.862-3.978-8.862-8.863c0-4.885,3.976-8.858,8.862-8.858c4.889,0,8.863,3.973,8.863,8.858
		C22.807,33.995,18.832,37.973,13.943,37.973z M39.146,37.473c-2.223,0.814-4.628,0.723-6.783-0.274
		c-2.147-0.983-3.785-2.755-4.604-4.976v-0.004c-0.824-2.219-0.729-4.623,0.262-6.774c0.988-2.153,2.76-3.787,4.982-4.608
		c4.586-1.69,9.688,0.663,11.387,5.249C46.08,30.664,43.732,35.773,39.146,37.473z"/>
	<path fill="#020202" d="M13.805,23.53c-3.024,0-5.485,2.458-5.485,5.48c0,3.029,2.461,5.49,5.485,5.49
		c3.019,0,5.477-2.461,5.477-5.49C19.281,25.988,16.823,23.53,13.805,23.53z M13.805,32.609c-1.984,0-3.599-1.613-3.599-3.601
		c0-1.979,1.614-3.59,3.599-3.59c1.98,0,3.587,1.61,3.587,3.59C17.392,30.996,15.785,32.609,13.805,32.609z"/>
	<path fill="#020202" d="M36.05,23.53c-3.021,0-5.477,2.458-5.477,5.48c0,3.029,2.456,5.49,5.477,5.49s5.485-2.461,5.485-5.49
		C41.535,25.988,39.071,23.53,36.05,23.53z M36.05,32.609c-1.98,0-3.595-1.613-3.595-3.601c0-1.979,1.614-3.59,3.595-3.59
		c1.989,0,3.597,1.61,3.597,3.59C39.646,30.996,38.039,32.609,36.05,32.609z"/>
</g>
<path fill="#FFFFFF" d="M60.354,39.14c-5.962,0-10.813-4.414-10.813-9.84c0-5.427,4.851-9.841,10.813-9.841
	c5.961,0,10.812,4.414,10.812,9.841C71.166,34.726,66.315,39.14,60.354,39.14"/>
<path fill="#589441" d="M53.891,29.152c0,3.59,2.911,6.5,6.504,6.5c3.591,0,6.503-2.91,6.503-6.5c0-3.59-2.912-6.5-6.503-6.5
	C56.802,22.651,53.891,25.562,53.891,29.152"/>
<path fill="#589441" d="M60.395,20.134c-4.978,0-9.027,4.046-9.027,9.021c0,4.973,4.05,9.021,9.027,9.021s9.026-4.048,9.026-9.021
	C69.421,24.18,65.371,20.134,60.395,20.134 M60.395,40.491c-6.253,0-11.34-5.087-11.34-11.339c0-6.252,5.087-11.338,11.34-11.338
	c6.252,0,11.339,5.086,11.339,11.338C71.733,35.404,66.646,40.491,60.395,40.491"/>
<path fill="#589441" d="M76.569,29.014c0,3.59,2.911,6.502,6.503,6.502c3.592,0,6.504-2.912,6.504-6.502s-2.912-6.5-6.504-6.5
	C79.48,22.513,76.569,25.424,76.569,29.014"/>
</svg>
